<?xml version="1.0" encoding="utf-8"?>
<!-- Generator: Adobe Illustrator 19.0.0, SVG Export Plug-In . SVG Version: 6.00 Build 0)  -->
<svg version="1.1" id="Layer_1" xmlns="http://www.w3.org/2000/svg" xmlns:xlink="http://www.w3.org/1999/xlink" x="0px" y="0px"
	 viewBox="0 0 1000 1000" style="enable-background:new 0 0 1000 1000;" xml:space="preserve">
<style type="text/css">
	.st0{fill:url(#XMLID_3_);}
	.st1{fill:#FFFFFF;}
</style>
<linearGradient id="XMLID_3_" gradientUnits="userSpaceOnUse" x1="-1.5975" y1="499.6873" x2="1000.8218" y2="499.6873">
	<stop  offset="0" style="stop-color:#53130C"/>
	<stop  offset="1" style="stop-color:#BC3326"/>
</linearGradient>
<circle id="XMLID_1_" class="st0" cx="499.6" cy="499.7" r="501.2"/>
<path id="XMLID_48_" class="st1" d="M467.2,681.6c-0.4,0.4-0.6,1-0.7,1.6c-2,9.4-3.9,18.7-5.9,28.1c-1.5,7.2-3,14.5-4.6,21.7
	c-0.1,0.7-0.3,1.4-0.5,2.1c-0.1,0.6-0.5,1.1-1.2,1.2c-1.2,0.2-2.4,0.4-3.5,0.6c-5.5,0.7-10.9,1.4-16.4,2c-4.9,0.6-9.7,1.1-14.6,1.7
	c-4.7,0.6-9.5,1.2-14.2,1.8c-2.4,0.3-4.7,0.6-7.1,0.9c-5.6,0.7-11.1,1.4-16.7,2.1c-4.9,0.6-9.7,1.1-14.6,1.7
	c-4.7,0.6-9.5,1.2-14.2,1.8c-1.8,0.2-3.6,0.4-5.4,0.5c-0.2,0-0.4-0.2-0.5-0.4c-0.1-0.2,0-0.5,0.1-0.7c0.5-0.7,1-1.4,1.5-2
	c7.6-10.2,15.1-20.3,22.7-30.5c0.6-0.9,1.3-1.7,1.9-2.6c0.2-0.3,0.3-0.6,0.4-1c-0.8-1.2-2-2-3-2.9c-0.9,0-1.3,0.7-1.8,1.2
	c-5.1,5.5-10.2,11-15.4,16.6c-3.5,3.8-7,7.6-10.4,11.4c-10.9,11.9-20.9,24.6-29.8,38.1c-5.3,8-10.5,16-15.7,24
	c-2.2,3.4-4.4,6.8-6.7,10.2c-0.2,0.3-0.5,0.4-0.8,0.6c-0.1,0-0.3,0-0.3-0.1c-0.1-0.3-0.2-0.7-0.2-1c0.4-2.8,0.6-5.7,1.1-8.5
	c2.6-15.3,7.6-29.9,14.3-43.8c12.1-25,28.4-46.7,49.2-65.1c7.4-6.5,15.2-12.4,23.6-17.5c6.5-4,13.4-7.4,20.5-10.2
	c3.7-1.4,7.3-3,10.8-4.9c2.4-1.3,4.8-2.8,7-4.4c8.6-6.2,14.2-14.4,17-24.6c1.3-4.9,2.1-9.8,2.3-14.9c0.1-3.8,0.3-7.6,0-11.5
	c0-0.3-0.5-0.6-0.8-0.5c-0.3,0.2-0.6,0.3-0.9,0.5c-0.9,0.6-1.7,1.3-2.6,1.9c-16.3,12.3-32.7,24.6-49,36.9c-0.9,0.6-1.7,1.3-2.6,1.9
	c-0.4,0.3-0.9,0.3-1.4,0.1c-1.2-0.5-2.4-1.1-3.6-1.6c-25-12-50-23.9-75-35.9c-10.7-5.1-21.3-10.2-32-15.3c-2.3-1.1-2.7-1.4-2.4-1.8
	c0.6-0.9,1.6-1,2.4-1.3c18-7.2,35.9-14.4,53.9-21.6c0.9-0.4,1.7-0.8,2.6-1.2c0.1,0,0-0.4,0-0.6c-0.2,0-0.5-0.1-0.7-0.1
	c-4.3,0.1-8.6,0.5-12.9,1c-16.7,1.9-32.7,6.8-48.3,12.9c-10.1,4-20,8.5-29.9,13c-9.6,4.4-19.2,8.7-28.8,12.9
	c-3.6,1.6-7.2,3.2-11,4.3c-0.1,0-0.2-0.1-0.3-0.1c-0.1-0.1-0.1-0.2-0.1-0.3c0.4-0.7,0.8-1.4,1.4-2.1c3.6-4.5,7.5-8.7,11.7-12.6
	c6.5-6.1,13.4-11.5,20.8-16.5c18.3-12.5,37.9-22.2,59.1-28.8c7.2-2.3,14.5-4,21.9-5.2c5.9-0.9,11.9-1.5,17.9-1.6
	c6.3-0.1,12.7-0.1,19,0.5c4.3,0.4,8.6,0.6,12.9,1c4.8,0.5,9.5,1.1,14.2,1.8c4,0.5,8,1.1,12.1,1.7c2.2,0.3,4.5,0.6,6.7,0.9
	c7.1,1,14.3,1.1,21.5,0.4c7.2-0.7,14.1-2.5,20.6-5.6c6.5-3.1,12-7.4,16.4-13.1c0.5-0.6,0.9-1.4,1.5-2.1c-0.3-0.3-0.5-0.6-0.8-0.7
	c-1.1-0.4-2.2-0.8-3.4-1.2c-12.9-4.3-25.8-8.6-38.7-13c-5.4-1.8-10.8-3.8-16.4-5.3c-6.5-1.8-13-3.2-19.7-3.7
	c-12.5-1-24.3,1.5-35.1,8c-4,2.4-7.7,5.2-11.2,8.4c-0.7,0.6-1.5,1.2-2.2,1.8c-0.1,0.1-0.4-0.1-0.8-0.2c0-0.9,0-1.9,0-2.8
	c0-3.7,0-7.4,0.1-11.1c0.1-8.3-0.3-16.5-1-24.7c-0.4-6-1.1-11.9-1.8-17.8c-1-8.1-2.3-16.1-3.9-24.1c-2.9-14.7-6.8-29.1-11.7-43.2
	c-9.2-26.7-21.5-51.9-36.4-75.8c-7.7-12.3-16-24.1-24.8-35.6c-0.5-0.7-1-1.4-1.5-2c-1.6-1.7-2.4-3.8-2.9-6.1c0-0.2,0.1-0.5,0.2-0.6
	c0.1-0.1,0.4-0.1,0.6,0c2.2,0.7,4.2,1.7,6,3.1c20.2,16.4,40.5,32.8,60.8,49.2c11.4,9.2,22.9,18.5,34.3,27.7c0.8,0.7,1.7,1.3,2.5,2
	c0.2,0.1,0.4,0.1,0.6,0.1c0-0.2,0.2-0.5,0.1-0.6c-1.9-3.6-4-7.1-6.5-10.3c-11.6-14.8-24.5-28.4-38.5-41
	c-14.6-13.1-30.2-25-46.3-36.2c-10.8-7.5-21.9-14.6-33-21.6c-7.4-4.6-14.6-9.5-21.5-15c-5.5-4.4-10.8-9.1-15.6-14.2
	c-0.5-0.5-0.9-1.1-1.3-1.7c-0.1-0.1,0-0.2,0-0.3c0-0.1,0.2-0.2,0.2-0.2c1.7,0.2,3.3,0.4,5,0.7c7.5,1,14.7,3.3,21.8,5.7
	c20.3,6.8,39.4,16.1,57.6,27.2c14.9,9.1,29.1,19.3,42.7,30.3c34.2,27.5,64.7,58.6,91.9,92.9c6.5,8.2,12.7,16.5,18.8,24.9
	c3.7,5.1,7.1,10.5,9.9,16.2c2.1,4.3,4.2,8.6,6.3,12.9c2.2,4.5,4.7,8.9,7.6,13c4,5.7,8.6,10.9,14.1,15.2c8.1,6.4,17.2,10.3,27.4,11.6
	c4.1,0.5,8.3,0.7,12.5,0.4c8.1-0.5,15.8-2.2,23.5-4.7c0.4-0.1,0.8-0.4,1.3-0.6c0.1,0,0.1-0.2,0.3-0.3c-0.4-0.3-0.7-0.6-1.2-0.8
	c-6.2-2.7-12.5-5.4-18.8-8.1c-4.2-1.8-8.4-3.5-12.4-5.7c-2.2-1.2-4.4-2.5-6.5-3.8c-11-7.2-18.7-16.9-23.4-29.2
	c-1.1-3-2.1-6.1-2.9-9.2c-1.5-5.7-3.3-11.2-5.8-16.6c-0.9-2-1.8-3.9-2.9-5.8c-5.4-10-13.2-17.8-23.1-23.4
	c-5.5-3.1-11.4-5.5-17.4-7.5c-3.3-1.1-6.6-2-10-3c-0.5-0.1-0.9-0.3-1.3-0.5c-0.3-0.1-0.4-0.7-0.2-0.9c1-0.9,1.9-1.8,2.9-2.7
	c8.3-7.2,16.3-14.8,23.8-22.9c22.9-24.5,41.1-52.2,54.7-82.8c7.8-17.5,14-35.6,18.8-54.1c2.8-10.6,5-21.4,7-32.2
	c0.6-3.5,1.1-7.1,1.7-10.6c0.1-0.5,0.1-1,0.4-1.4c0.1-0.3,0.5-0.6,0.8-0.6c1.5-0.3,3.1-0.2,4.6,0c0.2,0,0.4,0.3,0.5,0.4
	c0.2,0.3,0.2,0.7,0.3,1c0.4,3.2,0.9,6.4,1.3,9.6c0.7,5.6,1.4,11.2,2,16.7c0.6,4.9,1.1,9.7,1.7,14.6c0.6,4.9,1.2,9.7,1.8,14.6
	c0.3,2.5,0.6,5,0.9,7.5c0.7,5.6,1.4,11.2,2,16.7c0.6,4.9,1.1,9.7,1.7,14.6c0.6,4.9,1.2,9.7,1.8,14.6c0.3,2.6,0.6,5.2,0.9,7.8
	c0.3,2.3,0.6,4.5,0.8,6.8c0.1,0.6,0.4,0.9,0.8,1c0.4,0,0.9-0.4,0.9-0.9c0-0.7,0.1-1.4,0.1-2.1c0.3-8,0.6-16,1-24
	c0.4-6.5,0.6-12.9,0.6-19.4c0.1-4.7,0-9.3,0-14c-0.1-6.9-0.7-13.8-1.4-20.7c-1.2-11.8-3-23.5-5-35.1c-2-11.7-4-23.3-6.1-35
	c-1.5-8.6-3.2-17.2-4.7-25.7c-1.2-6.9-2.4-13.9-3.2-20.9c-0.6-5.2-1.2-10.4-1.8-15.7c0-0.3,0-0.7,0-1.1c0-0.1,0.1-0.3,0.2-0.3
	c0.2,0,0.5,0,0.6,0.2c0.5,0.5,0.9,1.1,1.3,1.7c1.6,2.5,3.3,5,4.8,7.5c12.2,19.9,21.1,41.3,26.7,63.9c2,7.9,3.6,15.9,4.8,23.9
	c0.7,4.8,1.2,9.7,1.7,14.6c1.2,12.4,1.5,24.8,1.5,37.3c0,12.6,0,25.1-0.2,37.7c-0.2,10.3-0.7,20.6-1.1,30.8c0,0.5,0,1-0.1,1.4
	c-0.3,8-0.6,16-1,24c-0.3,7-0.7,14.1-1.1,21.1c-0.1,2-0.1,4.1-0.2,6.1c-0.2,4.4-0.4,8.8-0.7,13.3c-0.3,4.3-1.4,8.5-2.5,12.6
	c-1.7,6-4,11.8-6.3,17.5c-1.6,4-3.1,8-4.3,12.2c-1.9,6.8-3.2,13.7-3.2,20.8c0,14.6,4.6,27.4,14,38.6c3.9,4.6,8.3,8.6,13.1,12.2
	c4.4,3.3,9.1,6.1,14,8.8c1.5,0.8,3.1,1.4,4.7,1.7c8.6,1.7,17.1,3.4,25.7,5.1c9.1,1.8,18.3,3.6,27.4,5.4c8.1,1.6,16.2,3.2,24.3,4.8
	c3,0.6,6.1,1.2,9.1,1.8c0.5,0.1,0.9,0.2,1.4,0.2c0.2,0,0.5,0,0.7-0.2c0.1-0.1,0.1-0.5,0.1-0.6c-0.5-1-0.9-1.9-1.5-2.9
	c-3.8-7-7.6-14.1-11.5-21.1c-1.5-2.7-3-5.5-4.5-8.2c-0.2-0.4-0.4-0.9-0.5-1.3c0-0.1,0.1-0.2,0.1-0.3c0.1-0.1,0.2-0.1,0.3-0.1
	c0.3,0.1,0.7,0.3,0.9,0.5c2.1,1.9,4.3,3.8,6.4,5.8c2.6,2.6,5.1,5.3,7.7,8c2.7,2.9,5.4,5.7,8.2,8.6c1.8,1.8,3.6,3.5,5.5,5.2
	c3.7,3.3,7.7,6.1,12.1,8.3c3.1,1.6,6.2,3.2,9.3,4.7c0.2,0.1,0.5,0,0.7,0c0.3,0,0.5-0.5,0.4-0.9c0-0.2-0.1-0.5-0.1-0.7
	c-0.4-2.5-0.8-5-1.2-7.4c-1.1-7-2.3-13.9-3.5-20.9c-0.6-3.8-1.3-7.5-1.9-11.3c-0.1-0.6-0.2-1.2,0.1-1.8c0-0.1,0.2-0.1,0.3,0
	c0.2,0.1,0.4,0.2,0.5,0.4c0.7,1.1,1.3,2.3,1.9,3.4c8.4,16,16.9,31.9,25.3,47.9c0.5,0.9,1.1,1.9,1.6,2.8c0.1,0.1,0.4,0.1,0.8,0.2
	c0.5-1,1.1-2.1,1.6-3.2c3.4-7.1,6.8-14.2,10.2-21.3c0.3-0.6,0.7-1.2,1.1-1.8c0-0.1,0.3-0.1,0.3-0.1c0.2,0.1,0.4,0.3,0.4,0.4
	c-0.6,7.6-0.8,15.3-0.3,22.9c1,16.1,6,30.9,15.8,43.9c3.3,3.5,4.4,7.9,4.9,12.5c0.3,2.6,0.5,5.2,0.8,7.9c0.1,1.1,0.3,2.1,0.5,3.2
	c0.4,2.8,1.5,5.3,3,7.6c1.5,2.3,2.9,4.7,4.2,7.1c1.3,2.3,2.5,4.6,3.4,7.1c0.7,1.8,1.1,3.6,1.3,5.6c0.2,2.8-0.4,5.5-1.8,7.9
	c-0.3,0.5-0.6,1-0.9,1.5c-2.3,3.5-5.1,6.6-8.2,9.5c-0.4,0.3-0.9,0.3-1.2-0.1c-0.7-0.8-1.3-1.7-1.9-2.6c-13.1-18-26.1-36-39.2-54
	c-0.6-0.9-1.3-1.7-1.9-2.6c-0.4-0.5-1-0.6-1.6-0.3c-1.8,0.9-3.6,1.8-5.4,2.7c-0.7,0.4-0.9,0.9-0.6,1.8c1.6,5.3,3.2,10.5,4.8,15.8
	c3.4,10.8,6.7,21.7,10.1,32.5c0.2,0.6,0.3,1.1,0.4,1.7c0,0.2-0.1,0.4-0.2,0.6c0,0.1-0.3,0.1-0.3,0c-2.8-1.7-5.5-3.3-8.2-5
	c-0.4-0.2-0.8-0.6-1.1-0.9c-0.6-0.6-1-1.3-1.1-2.2c-0.1-1.4-0.3-2.9-0.5-4.3c-0.6-5.3-2.4-10.2-5-14.8c-2-3.4-4.3-6.6-7-9.5
	c-2.8-3.1-5.8-6-9-8.8c-1.6-1.4-3.3-2.8-4.9-4.2c-0.7-0.6-1.4-1.3-2-2c-1.3-1.6-2-3.5-2-5.6c0-1.9-0.1-3.8-0.3-5.7
	c-0.8-7.3-4.1-13.1-10.2-17.3c-2.6-1.8-5.3-3.2-8.3-4.3c-2.2-0.9-4.5-1.6-6.8-2.3c-8.9-2.7-17.8-5.4-26.8-8.1
	c-7.7-2.3-15.4-4.3-23.3-5.8c-4.3-0.8-8.7-1.5-13.1-1.9c-3.6-0.4-7.1-0.5-10.7-0.6c-12.2-0.2-24,2-35.5,6.1
	c-8.4,3-16.3,6.9-23.6,11.9c-16.1,11.2-26.9,26.2-32.5,45c-2.1,7.1-3.3,14.4-3.8,21.9c-0.4,6.3-0.4,12.7,0.2,19
	c3.3,32.2,21.1,58.1,47.7,72.4c8.3,4.4,17,7.5,26.2,9.5c7.7,1.6,15.5,3,23.3,4.1c2,0.3,4,0.6,6,0.8c2.3,0.2,4.5,0.7,6.7,1.3
	c3.1,0.8,6.2,1.9,9.2,3c8.2,3.2,16.3,6.8,24.2,10.9c6.7,3.5,13.1,7.5,18.9,12.2c9.9,8,17.2,17.9,21.5,29.9c1,2.8,1.9,5.7,2.8,8.5
	c1.7,5.9,3,11.8,4.3,17.8c2.1,9.4,4.3,18.9,7.2,28.1c0.8,2.6,1.7,5.2,2.5,7.9c1.5,4.7,2.1,9.6,1.7,14.5c-0.1,0.7-0.2,1.4-0.4,2.1
	c-0.1,0.2-0.3,0.4-0.4,0.6c-0.3-0.2-0.6-0.4-0.8-0.7c-0.5-0.8-0.9-1.7-1.3-2.5c-3.4-6.9-6.7-13.7-10.1-20.6c-0.2-0.4-0.4-0.9-0.9-1
	c-0.1,0-0.3,0-0.3,0.1c-0.1,0.1-0.1,0.2-0.1,0.3c-0.1,0.7-0.1,1.4-0.1,2.1c-0.1,13.5-0.2,27-0.3,40.5c0,1.8,0.3,3.5,0.9,5.2
	c1,2.7,1.6,5.5,1.9,8.4c0.3,3.1,0.6,6.2,0.5,9.3c-0.2,5.4-0.7,10.7-2,16c-1.1,4.3-3,8.3-5.6,11.9c-0.3,0.4-0.7,0.6-0.9,0.3
	c-0.1-0.2-0.3-0.4-0.3-0.6c0.2-2.4,0.3-4.8,0.6-7.1c0.5-5,0.8-10,0.4-15c-0.3-3.6-1-7.1-1.7-10.6c-0.1-0.3-0.4-0.7-0.6-0.8
	c-0.2,0-0.6,0.3-0.8,0.5c-0.8,1-1.5,2.1-2.3,3.2c-5.4,7.6-11.3,14.8-18,21.4c-8.1,7.9-17.2,14.5-27.5,19.2c-3.9,1.8-8,3.3-12.1,4.5
	c-0.5,0.1-0.9,0.2-1.4,0.3c-0.2,0-0.4-0.2-0.5-0.3c-0.1-0.1,0-0.3,0-0.3c0.6-0.7,1.2-1.5,1.9-2.1c3.2-3.2,6.4-6.4,9.6-9.6
	c2.8-2.8,5.5-5.6,8.3-8.5c4.7-5,8.7-10.5,12.1-16.4c6.3-10.9,11.3-22.4,14.6-34.6c1.6-6.1,2.8-12.3,3.5-18.7
	c0.5-4.5,0.6-9.1,0.5-13.6c-0.3-11.2-2.6-22.1-7.1-32.4c-5.8-13.1-14.5-23.8-26.1-32.2c-8.1-5.9-17-10.2-26.5-13.3
	c-5.1-1.7-10.3-3-15.5-4.3c-9.9-2.4-19.7-4.8-29.6-7.2c-11-2.7-21.9-5.9-32.5-10c-13-5-25.3-11.4-36.5-19.7c-3-2.2-5.8-4.6-8.7-6.9
	C468.3,682,467.9,681.5,467.2,681.6z"/>
<path id="XMLID_47_" class="st1" d="M363.5,875.7c-0.3-0.1-0.6,0-0.7-0.1c-0.3-0.5-0.7-1-0.9-1.5c-7.5-16-14.1-32.4-19.5-49.3
	c-2.3-7.4-4.3-14.9-5.7-22.6c-0.5-2.6-1-5.2-1.1-7.8c0-0.3,0.1-0.7,0.2-1c0,0,0.3-0.1,0.3,0c0.3,0.2,0.5,0.4,0.7,0.7
	c5.8,11,14.1,19.9,23.7,27.5c11.2,8.8,23.6,15.4,37.2,19.6c6.9,2.1,13.9,3.4,21.1,3.7c9.1,0.4,17.9-1,26.2-4.9
	c0.5-0.3,1.1-0.5,1.6-0.7c0.1,0,0.2,0,0.3,0.1c0.3,0.1,0.3,0.3,0.2,0.6c-0.2,0.5-0.4,1.1-0.7,1.6c-2.6,5.1-6.4,9.2-11.1,12.5
	c-0.8,0.5-1.5,1.1-2.3,1.7c-0.1,0.1-0.1,0.2-0.1,0.3c0,0.1,0.1,0.2,0.2,0.3c0.1,0.1,0.2,0.1,0.3,0.1c9,1,17.6-0.4,25.6-4.9
	c2-1.1,3.8-2.5,5.7-3.7c0.1-0.1,0.4,0,0.6,0.1c0.1,0,0.1,0.2,0.2,0.3c0,0.1,0,0.2,0,0.4c-0.8,3.8-1.7,7.5-3.2,11
	c-1,2.3-2.2,4.5-4.4,5.9c-0.1,0.1-0.2,0.4-0.2,0.6c0,0.2,0.3,0.3,0.5,0.3c2.1,0.2,4.3,0.4,6.4,0.6c4.8,0.3,9.5,0.6,14.3,0.8
	c6,0.3,12,0,17.9-0.6c12.6-1.2,24.6-4.6,35.8-10.7c4.2-2.3,8.2-5,11.9-8c0.6-0.4,1.1-0.9,1.6-1.4c0.4-0.3,0.4-1,0.2-1.3
	c-0.6-0.8-1.2-1.5-1.8-2.2c-4.8-6.2-7.8-13.1-8.8-20.9c-1.1-8.6,0.1-16.9,4.1-24.8c6.7-13.2,17.3-21.5,31.8-24.4
	c17-3.4,33.7,3.9,43.2,17.2c5.8,8,8.6,17,8.4,26.9c-0.2,10.3-3.4,19.5-9.9,27.4c-6.3,7.6-14.4,12.5-24.1,14.5
	c-6.9,1.5-13.8,1.3-20.6-0.3c-0.6-0.1-1.2-0.4-1.7-0.4c-0.5,0-1,0-1.4,0.3c-0.7,0.4-1.3,1-2,1.5c-5.8,4.6-11.8,8.9-18.2,12.8
	c-8.5,5.2-17.5,9.4-27,12.3c-6.5,2-13.2,3.4-20,4.1c-10,1.1-20,1.3-30.1,1c-5.9-0.2-11.7-0.3-17.6-0.4c-0.9,0-1.9,0.1-2.8,0.2
	c-0.8,0.1-1.4,1.2-1.1,1.9c0.2,0.5,0.4,1.1,0.8,1.6c0.8,1,1.7,2,2.7,2.9c1.7,1.5,3.5,2.9,5.3,4.3c8,5.9,16.5,10.9,25.5,15.3
	c1.9,0.9,3.9,1.7,5.9,2.6c0.1,0.1,0.3,0.4,0.2,0.6c0,0.2-0.2,0.4-0.4,0.5c-2.1,0.5-4.2,0.9-6.4,1c-6.1,0.4-12.2-0.3-18.1-1.8
	c-5-1.3-9.8-3-14.5-5.1c-4.1-1.9-8.2-3.8-12.4-5.7c-2.3-1-4.6-2-6.9-2.9c-0.3-0.1-0.7-0.1-1-0.1c-0.2,0-0.4,0.3-0.4,0.5
	c-0.1,0.2,0,0.5,0.1,0.7c1,3.4,2.5,6.5,4.3,9.4c2.6,4.2,5.6,8,8.9,11.6c0.6,0.6,1,1.3,1.5,1.9c0,0.1,0,0.2,0,0.3
	c-0.1,0.1-0.2,0.2-0.3,0.2c-1.5-0.5-3-0.9-4.4-1.5c-11.4-4.6-20.9-11.9-28.7-21.4c-2-2.5-3.9-5.1-5.6-7.9c-0.2-0.3-0.5-0.4-0.8-0.6
	c-0.1,0-0.3,0-0.3,0.1c0,0.5-0.1,1,0,1.4c0.5,3.1,1.1,6.1,1.7,9.2c0.3,1.4,0.5,2.8,0.8,4.2c0.1,0.7,0.5,1.6-0.1,2
	c-0.6,0.3-1.3-0.3-2-0.6c-2.8-1.6-5.4-3.6-7.8-5.7c-4-3.6-7.6-7.6-10.8-12c-4.9-6.7-8.9-13.9-12.2-21.5c-1.3-3-2.4-6-3.6-9
	c-0.1-0.3-0.3-0.7-0.7-0.6c-0.3,0.1-0.6,0.3-0.8,0.6c-0.2,0.3-0.4,0.6-0.6,0.9c-1.1,1.8-1.6,3.7-1.9,5.7
	C363.6,874.3,363.6,875,363.5,875.7z"/>
<path id="XMLID_46_" class="st1" d="M584.5,657.7c-14.3-0.2-26.8-4.5-37.8-13.1c-10.4-8.1-17.6-18.5-21.3-31.2
	c-1.9-6.5-2.5-13.1-2.1-19.9c1.5-24.3,19.7-48.5,46.9-55.3c7-1.8,14.1-2,21.4-1.2c22.6,2.7,44.8,19.7,50.9,47
	c1.4,6.4,1.8,13,1.1,19.6c-1.2,11.2-4.9,21.4-11.7,30.4c-8.3,11-19.2,18.1-32.5,21.6C594.7,657,589.1,657.7,584.5,657.7z"/>
</svg>
